<svg width="20" height="20" viewBox="0 0 20 20" fill="none" xmlns="http://www.w3.org/2000/svg">
<path d="M19.4737 4.70588H14.7105C14.4474 2.05882 12.4474 0 10 0C7.55263 0 5.55263 2.05882 5.28947 4.70588H0.526316C0.236842 4.70588 0 4.97059 0 5.29412V19.4118C0 19.7353 0.236842 20 0.526316 20H19.4737C19.7632 20 20 19.7353 20 19.4118V5.29412C20 4.97059 19.7632 4.70588 19.4737 4.70588ZM14.2105 8.82353C14.5 8.82353 14.7368 9.08824 14.7368 9.41177C14.7368 9.73529 14.5 10 14.2105 10C13.9211 10 13.6842 9.73529 13.6842 9.41177C13.6842 9.08824 13.9211 8.82353 14.2105 8.82353ZM10 1.17647C11.8421 1.17647 13.3947 2.70588 13.6316 4.70588H6.36842C6.60526 2.70588 8.1579 1.17647 10 1.17647ZM5.78947 8.82353C6.07895 8.82353 6.31579 9.08824 6.31579 9.41177C6.31579 9.73529 6.07895 10 5.78947 10C5.5 10 5.26316 9.73529 5.26316 9.41177C5.26316 9.08824 5.5 8.82353 5.78947 8.82353ZM18.9474 18.8235H1.05263V5.88235H5.26316V7.73529C4.6579 7.97059 4.21053 8.61765 4.21053 9.41177C4.21053 10.3824 4.92105 11.1765 5.78947 11.1765C6.6579 11.1765 7.36842 10.3824 7.36842 9.41177C7.36842 8.64706 6.92105 8 6.31579 7.73529V5.88235H13.6842V7.73529C13.0789 7.97059 12.6316 8.61765 12.6316 9.41177C12.6316 10.3824 13.3421 11.1765 14.2105 11.1765C15.0789 11.1765 15.7895 10.3824 15.7895 9.41177C15.7895 8.64706 15.3421 8 14.7368 7.73529V5.88235H18.9474V18.8235Z" fill="black"/>
</svg>
