<svg width="34" height="32" viewBox="0 0 34 32" fill="none" xmlns="http://www.w3.org/2000/svg">
<path d="M16.9501 17.9692C21.9853 17.9692 26.0235 13.9323 26.0235 9.00923C26.0235 4.08615 21.9853 0 16.9501 0C11.915 0 7.87683 4.03692 7.87683 8.96C7.87683 13.8831 11.915 17.9692 16.9501 17.9692ZM16.9501 2.36308C20.6393 2.36308 23.6305 5.31692 23.6305 8.96C23.6305 12.6031 20.6393 15.5569 16.9501 15.5569C13.261 15.5569 10.2698 12.6523 10.2698 9.00923C10.2698 5.36615 13.261 2.36308 16.9501 2.36308ZM1.19648 32H32.8035C33.4516 32 34 31.4585 34 30.8185C34 24.6154 28.8651 19.5446 22.5836 19.5446H11.4164C5.1349 19.5446 0 24.6154 0 30.8185C0 31.4585 0.548387 32 1.19648 32ZM11.4164 21.9077H22.5836C27.1701 21.9077 30.9091 25.2554 31.5073 29.6369H2.49267C3.09091 25.2554 6.82991 21.9077 11.4164 21.9077Z" fill="black"/>
</svg>
