<svg width="430" height="38" viewBox="0 0 430 38" fill="none" xmlns="http://www.w3.org/2000/svg">
<rect x="0.5" y="0.5" width="429" height="37" stroke="black"/>
<path fill-rule="evenodd" clip-rule="evenodd" d="M406.846 29.6391L404.975 31.3913L399.361 26.1349L401.233 24.3815L406.846 29.6391ZM390.969 23.9565C386.593 23.9565 383.031 20.622 383.031 16.5217C383.031 12.4226 386.593 9.0869 390.969 9.0869C395.345 9.0869 398.908 12.4226 398.908 16.5217C398.908 20.622 395.345 23.9565 390.969 23.9565ZM390.969 6.60864C385.124 6.60864 380.385 11.0472 380.385 16.5217C380.385 21.9962 385.124 26.4347 390.969 26.4347C396.815 26.4347 401.554 21.9962 401.554 16.5217C401.554 11.0472 396.815 6.60864 390.969 6.60864Z" fill="black"/>
</svg>
