<svg width="129" height="129" viewBox="0 0 129 129" fill="none" xmlns="http://www.w3.org/2000/svg">
<circle cx="64.5" cy="64.5" r="64" stroke="black"/>
<path d="M79.5687 61.0023L78.8335 81.4772C78.7709 83.2307 77.9682 84.8928 76.5957 86.1106C75.2233 87.3285 73.3891 88.0062 71.4825 88H57.5156C55.6103 88.0062 53.7772 87.3294 52.4049 86.113C51.0326 84.8967 50.2291 83.2363 50.1646 81.4839L49.4295 61.0023C49.4134 60.5538 49.5916 60.1177 49.9249 59.7901C50.2582 59.4625 50.7192 59.2701 51.2066 59.2553C51.694 59.2405 52.1678 59.4045 52.5239 59.7112C52.8799 60.0179 53.0889 60.4422 53.105 60.8907L53.8401 81.3706C53.8767 82.2449 54.2801 83.0721 54.9654 83.6785C55.6508 84.2849 56.5648 84.6234 57.5156 84.6227H71.4825C72.4345 84.6233 73.3497 84.2839 74.0352 83.6761C74.7208 83.0682 75.1233 82.2393 75.158 81.3638L75.8931 60.8907C75.9092 60.4422 76.1183 60.0179 76.4743 59.7112C76.8303 59.4045 77.3041 59.2405 77.7915 59.2553C78.2789 59.2701 78.74 59.4625 79.0733 59.7901C79.4065 60.1177 79.5847 60.5538 79.5687 61.0023ZM82 54.1886C82 54.6371 81.8064 55.0673 81.4617 55.3844C81.1171 55.7016 80.6497 55.8798 80.1622 55.8798H48.8378C48.3504 55.8798 47.8829 55.7016 47.5383 55.3844C47.1936 55.0673 47 54.6371 47 54.1886C47 53.7401 47.1936 53.3099 47.5383 52.9928C47.8829 52.6756 48.3504 52.4975 48.8378 52.4975H54.5348C55.1171 52.4989 55.6791 52.3009 56.1115 51.9421C56.544 51.5832 56.8158 51.0891 56.8742 50.556C57.0099 49.3054 57.6466 48.146 58.6603 47.3037C59.6741 46.4615 60.9923 45.9967 62.3581 46H66.6401C68.0059 45.9967 69.324 46.4615 70.3378 47.3037C71.3516 48.146 71.9883 49.3054 72.1239 50.556C72.1823 51.0891 72.4542 51.5832 72.8866 51.9421C73.319 52.3009 73.8811 52.4989 74.4634 52.4975H80.1604C80.6478 52.4975 81.1152 52.6756 81.4599 52.9928C81.8045 53.3099 81.9982 53.7401 81.9982 54.1886H82ZM60.0646 52.4975H68.9373C68.6958 51.9897 68.5378 51.4516 68.4686 50.901C68.4231 50.4841 68.211 50.0977 67.8736 49.8165C67.5361 49.5353 67.0972 49.3794 66.6419 49.379H62.3599C61.9047 49.3794 61.4658 49.5353 61.1283 49.8165C60.7908 50.0977 60.5787 50.4841 60.5332 50.901C60.4634 51.4517 60.3067 51.9898 60.0646 52.4975ZM61.9152 78.1202V63.72C61.9152 63.2715 61.7216 62.8413 61.3769 62.5242C61.0323 62.207 60.5648 62.0288 60.0774 62.0288C59.59 62.0288 59.1226 62.207 58.778 62.5242C58.4333 62.8413 58.2397 63.2715 58.2397 63.72V78.127C58.2397 78.5755 58.4333 79.0056 58.778 79.3228C59.1226 79.64 59.59 79.8181 60.0774 79.8181C60.5648 79.8181 61.0323 79.64 61.3769 79.3228C61.7216 79.0056 61.9152 78.5755 61.9152 78.127V78.1202ZM70.7621 78.1202V63.72C70.7621 63.2715 70.5685 62.8413 70.2239 62.5242C69.8792 62.207 69.4118 62.0288 68.9244 62.0288C68.437 62.0288 67.9695 62.207 67.6249 62.5242C67.2803 62.8413 67.0866 63.2715 67.0866 63.72V78.127C67.0866 78.5755 67.2803 79.0056 67.6249 79.3228C67.9695 79.64 68.437 79.8181 68.9244 79.8181C69.4118 79.8181 69.8792 79.64 70.2239 79.3228C70.5685 79.0056 70.7621 78.5755 70.7621 78.127V78.1202Z" fill="black"/>
</svg>
