<svg width="5" height="6" viewBox="0 0 5 6" fill="none" xmlns="http://www.w3.org/2000/svg">
<path d="M4.65266 2.14318L4.54765 5.06817C4.5387 5.31867 4.42403 5.55611 4.22796 5.73009C4.0319 5.90407 3.76987 6.00088 3.49751 5.99999H1.50223C1.23004 6.00089 0.968168 5.90421 0.77213 5.73044C0.576092 5.55666 0.4613 5.31947 0.452087 5.06913L0.347073 2.14318C0.344775 2.07911 0.370231 2.01682 0.417842 1.97002C0.465452 1.92321 0.531316 1.89573 0.600945 1.89362C0.670574 1.8915 0.738264 1.91493 0.789124 1.95874C0.839984 2.00255 0.869847 2.06316 0.872145 2.12724L0.977159 5.05294C0.982389 5.17784 1.04001 5.29602 1.13792 5.38265C1.23583 5.46928 1.36641 5.51762 1.50223 5.51753H3.49751C3.63351 5.51761 3.76424 5.46913 3.86217 5.3823C3.96011 5.29546 4.01761 5.17705 4.02258 5.05198L4.12759 2.12724C4.12989 2.06316 4.15975 2.00255 4.21061 1.95874C4.26147 1.91493 4.32916 1.8915 4.39879 1.89362C4.46842 1.89573 4.53429 1.92321 4.5819 1.97002C4.62951 2.01682 4.65496 2.07911 4.65266 2.14318ZM5 1.1698C5 1.23388 4.97234 1.29533 4.9231 1.34063C4.87387 1.38594 4.80709 1.4114 4.73746 1.4114H0.262536C0.192907 1.4114 0.12613 1.38594 0.076895 1.34063C0.0276599 1.29533 0 1.23388 0 1.1698C0 1.10573 0.0276599 1.04428 0.076895 0.998969C0.12613 0.953661 0.192907 0.928207 0.262536 0.928207H1.0764C1.15958 0.928413 1.23987 0.900132 1.30165 0.848867C1.36342 0.797602 1.40226 0.72702 1.41061 0.650857C1.42998 0.472195 1.52094 0.306569 1.66576 0.186249C1.81059 0.0659297 1.9989 -0.000464661 2.19401 2.44805e-06H2.80572C3.00084 -0.000464661 3.18915 0.0659297 3.33397 0.186249C3.4788 0.306569 3.56976 0.472195 3.58913 0.650857C3.59748 0.72702 3.63631 0.797602 3.69809 0.848867C3.75986 0.900132 3.84016 0.928413 3.92334 0.928207H4.7372C4.80683 0.928207 4.87361 0.953661 4.92284 0.998969C4.97208 1.04428 4.99974 1.10573 4.99974 1.1698H5ZM1.86637 0.928207H3.13389C3.09939 0.855667 3.07683 0.778802 3.06695 0.700142C3.06044 0.640591 3.03015 0.585382 2.98194 0.545211C2.93372 0.50504 2.87102 0.482767 2.80599 0.482708H2.19428C2.12924 0.482767 2.06654 0.50504 2.01833 0.545211C1.97011 0.585382 1.93982 0.640591 1.93332 0.700142C1.92335 0.778814 1.90096 0.85568 1.86637 0.928207ZM2.13074 4.5886V2.53143C2.13074 2.46735 2.10308 2.4059 2.05385 2.36059C2.00461 2.31529 1.93784 2.28983 1.86821 2.28983C1.79858 2.28983 1.7318 2.31529 1.68257 2.36059C1.63333 2.4059 1.60567 2.46735 1.60567 2.53143V4.58957C1.60567 4.65364 1.63333 4.71509 1.68257 4.7604C1.7318 4.80571 1.79858 4.83116 1.86821 4.83116C1.93784 4.83116 2.00461 4.80571 2.05385 4.7604C2.10308 4.71509 2.13074 4.65364 2.13074 4.58957V4.5886ZM3.39459 4.5886V2.53143C3.39459 2.46735 3.36693 2.4059 3.3177 2.36059C3.26846 2.31529 3.20168 2.28983 3.13206 2.28983C3.06243 2.28983 2.99565 2.31529 2.94641 2.36059C2.89718 2.4059 2.86952 2.46735 2.86952 2.53143V4.58957C2.86952 4.65364 2.89718 4.71509 2.94641 4.7604C2.99565 4.80571 3.06243 4.83116 3.13206 4.83116C3.20168 4.83116 3.26846 4.80571 3.3177 4.7604C3.36693 4.71509 3.39459 4.65364 3.39459 4.58957V4.5886Z" fill="black"/>
</svg>
