<svg width="129" height="129" viewBox="0 0 129 129" fill="none" xmlns="http://www.w3.org/2000/svg">
<circle cx="64.5" cy="64.5" r="64" stroke="black"/>
<path d="M46.9933 70.0442H42.4661C41.9023 70.0442 41.441 70.4969 41.441 71.0692V78.1417C41.441 78.7054 41.9023 79.1667 42.4661 79.1667H46.9933C47.5571 79.1667 48.0184 78.7054 48.0184 78.1417V71.0692C48.0184 70.4969 47.5571 70.0442 46.9933 70.0442ZM46.31 77.4584H43.1494V71.7525H46.31V77.4584ZM55.2278 67.8319H50.7005C50.1367 67.8319 49.6755 68.2846 49.6755 68.8569V78.1417C49.6755 78.7054 50.1367 79.1667 50.7005 79.1667H55.2278C55.7915 79.1667 56.2528 78.7054 56.2528 78.1417V68.8569C56.2528 68.2846 55.7915 67.8319 55.2278 67.8319ZM54.5444 77.4584H51.3839V69.5402H54.5444V77.4584ZM63.4708 65.2438H58.9435C58.3798 65.2438 57.9185 65.6965 57.9185 66.2688V78.1417C57.9185 78.7054 58.3798 79.1667 58.9435 79.1667H63.4708C64.0346 79.1667 64.4958 78.7054 64.4958 78.1417V66.2688C64.4958 65.6965 64.0346 65.2438 63.4708 65.2438ZM62.7874 77.4584H59.6269V66.9521H62.7874V77.4584ZM71.7052 61.6733H67.178C66.6142 61.6733 66.153 62.1346 66.153 62.6983V78.1417C66.153 78.7054 66.6142 79.1667 67.178 79.1667H71.7052C72.269 79.1667 72.7303 78.7054 72.7303 78.1417V62.6983C72.7303 62.1346 72.269 61.6733 71.7052 61.6733ZM71.0219 77.4584H67.8613V63.3817H71.0219V77.4584ZM79.9483 58.2225H75.421C74.8572 58.2225 74.396 58.6838 74.396 59.2475V78.1417C74.396 78.7054 74.8572 79.1667 75.421 79.1667H79.9483C80.512 79.1667 80.9733 78.7054 80.9733 78.1417V59.2475C80.9733 58.6838 80.512 58.2225 79.9483 58.2225ZM79.2649 77.4584H76.1044V59.9309H79.2649V77.4584ZM87.9435 56.1555H83.4163C82.8525 56.1555 82.3913 56.6167 82.3913 57.1805V78.1417C82.3913 78.7054 82.8525 79.1667 83.4163 79.1667H87.9435C88.5073 79.1667 88.9686 78.7054 88.9686 78.1417V57.1805C88.9686 56.6167 88.5073 56.1555 87.9435 56.1555ZM87.2602 77.4584H84.0997V57.8638H87.2602V77.4584Z" fill="black"/>
<path d="M86.0985 49.2709C84.7574 49.2709 83.6384 50.1763 83.2711 51.3977H78.4193C78.2314 51.3977 78.0605 51.449 77.8982 51.5344L70.74 57.3257H66.469C66.2128 55.9419 65.0084 54.8828 63.5562 54.8828C61.9247 54.8828 60.5922 56.2238 60.5922 57.8638C60.5922 58.1884 60.652 58.4873 60.7459 58.7778L54.8349 62.109H51.9733C51.606 60.879 50.487 59.9821 49.1459 59.9821C47.5058 59.9821 46.1818 61.3146 46.1818 62.9631C46.1818 63.2109 46.216 63.45 46.2758 63.6807L41.6375 66.5165C41.2361 66.7642 41.1079 67.2852 41.3557 67.6953C41.5094 67.96 41.7913 68.0967 42.0817 68.0967C42.2355 68.0967 42.3892 68.0625 42.5259 67.9771L47.1471 65.1498C47.6767 65.6367 48.3771 65.9442 49.1459 65.9442C50.487 65.9442 51.606 65.0473 51.9733 63.8173H55.0143L55.3132 63.8003L61.7197 60.1871C62.2237 60.5971 62.8643 60.8448 63.5562 60.8448C64.7777 60.8448 65.8369 60.1017 66.2897 59.034H70.9792C71.1586 59.034 71.338 58.9827 71.4917 58.8973L78.6585 53.1061H83.2711C83.6384 54.3361 84.7574 55.2329 86.0985 55.2329C87.73 55.2329 89.0626 53.9004 89.0626 52.2519C89.0626 50.6119 87.73 49.2709 86.0985 49.2709ZM49.1459 64.2358C48.454 64.2358 47.8902 63.6636 47.8902 62.9631C47.8902 62.2627 48.454 61.6904 49.1459 61.6904C49.8378 61.6904 50.4016 62.2627 50.4016 62.9631C50.4016 63.6636 49.8378 64.2358 49.1459 64.2358ZM63.5562 59.1365C62.8643 59.1365 62.3006 58.5728 62.3006 57.8638C62.3006 57.1634 62.8643 56.5911 63.5562 56.5911C64.2481 56.5911 64.8119 57.1634 64.8119 57.8638C64.8119 58.5728 64.2481 59.1365 63.5562 59.1365ZM86.0985 53.5246C85.3981 53.5246 84.8343 52.9609 84.8343 52.2519C84.8343 51.5515 85.3981 50.9792 86.0985 50.9792C86.7904 50.9792 87.3542 51.5515 87.3542 52.2519C87.3542 52.9609 86.7904 53.5246 86.0985 53.5246Z" fill="black"/>
</svg>
