<svg width="167" height="62" viewBox="0 0 167 62" fill="none" xmlns="http://www.w3.org/2000/svg">
<path d="M56.6875 46.7812C56.875 46.7812 57.0625 46.7969 57.25 46.8281C57.6562 46.9219 57.8594 47.3125 57.8594 48H47.0781V46.7812C47.6406 46.7812 48.125 46.7344 48.5312 46.6406C49.5625 46.4219 50.0781 45.625 50.0781 44.25V29.1094H47.0781V27.9375H54.9531L55.1875 31.8281C55.5 31.1719 55.9062 30.5469 56.4062 29.9531C57.9688 28.1719 59.875 27.2812 62.125 27.2812C63.0625 27.2812 63.9375 27.4531 64.75 27.7969C67.3125 28.8594 68.5938 31.2344 68.5938 34.9219V46.7812H70.4219C70.6094 46.7812 70.7969 46.7969 70.9844 46.8281C71.3906 46.9219 71.5938 47.3125 71.5938 48H60.8594V46.7812C61.5156 46.7812 62.0156 46.7188 62.3594 46.5938C63.0781 46.3438 63.4375 45.5625 63.4375 44.25V34.2188C63.4375 33.5312 63.3594 32.9062 63.2031 32.3438C62.7344 30.5 61.625 29.5781 59.875 29.5781C59.2812 29.5781 58.6875 29.7344 58.0938 30.0469C56.4375 30.9844 55.5 32.7031 55.2812 35.2031L55.2344 46.7812H56.6875ZM81.9081 46.7812C82.0644 46.7812 82.205 46.7969 82.33 46.8281C82.7987 46.8906 83.0331 47.2812 83.0331 48H71.7831V46.7812C72.4081 46.7812 72.9081 46.7344 73.2831 46.6406C74.3144 46.3906 74.83 45.5938 74.83 44.25V29.1094H71.7831V27.9375H79.9862V46.7812H81.9081ZM80.455 21.5625C80.455 22.0938 80.33 22.5938 80.08 23.0625C79.4862 24.1562 78.5487 24.7031 77.2675 24.7031C76.7675 24.7031 76.2831 24.5938 75.8144 24.375C74.6581 23.8125 74.08 22.875 74.08 21.5625C74.08 21.0625 74.205 20.5625 74.455 20.0625C75.0487 18.9062 75.9862 18.3281 77.2675 18.3281C77.7675 18.3281 78.2519 18.4531 78.7206 18.7031C79.8769 19.3281 80.455 20.2812 80.455 21.5625ZM106.004 40.3125C106.004 42.3438 105.285 44.0625 103.847 45.4688C101.785 47.4688 98.8319 48.4688 94.9881 48.4688C91.7069 48.4688 88.8475 47.6719 86.41 46.0781C86.41 46.6719 86.3787 47.1094 86.3162 47.3906C86.16 47.8594 85.6912 48.0938 84.91 48.0938V38.25H86.5975C86.6912 39.4688 86.8944 40.5938 87.2069 41.625C88.3944 45.2812 90.8475 47.1094 94.5662 47.1094C95.5662 47.1094 96.4725 46.9375 97.285 46.5938C99.3162 45.7812 100.332 44.2812 100.332 42.0938C100.332 41.375 100.16 40.6875 99.8162 40.0312C99.16 38.7188 97.4569 37.3906 94.7069 36.0469C91.7381 34.5781 90.0194 33.7188 89.5506 33.4688C86.6131 31.6875 85.1444 29.4844 85.1444 26.8594C85.1444 25.1094 85.7694 23.5938 87.0194 22.3125C88.9256 20.375 91.6912 19.4062 95.3162 19.4062C98.16 19.4062 100.816 20.0156 103.285 21.2344C103.285 20.9531 103.301 20.7031 103.332 20.4844C103.457 19.8906 103.957 19.5938 104.832 19.5938V27.9844H103.144C103.144 26.2656 102.707 24.7812 101.832 23.5312C100.519 21.6875 98.5819 20.7656 96.0194 20.7656C95.2069 20.7656 94.4412 20.9062 93.7225 21.1875C91.91 21.875 91.0037 23.1562 91.0037 25.0312C91.0037 25.75 91.1756 26.4531 91.5194 27.1406C92.1756 28.4219 93.8475 29.7344 96.535 31.0781C99.4725 32.5156 101.16 33.3594 101.597 33.6094C104.535 35.4219 106.004 37.6562 106.004 40.3125ZM106.943 29.2969V28.0781H110.178V23.625L115.334 22.6406V28.0781H121.896V29.2969H115.334V43.5C115.334 43.8125 115.349 44.125 115.381 44.4375C115.599 46.2188 116.365 47.1094 117.678 47.1094C119.209 47.0781 120.318 45.6719 121.006 42.8906L122.271 43.0781C122.084 44.0469 121.834 44.875 121.521 45.5625C120.646 47.5312 118.974 48.5156 116.506 48.5156C112.568 48.3594 110.459 46.0156 110.178 41.4844V29.2969H106.943ZM131.976 46.7812C132.132 46.7812 132.273 46.7969 132.398 46.8281C132.867 46.8906 133.101 47.2812 133.101 48H121.851V46.7812C122.476 46.7812 122.976 46.7344 123.351 46.6406C124.382 46.3906 124.898 45.5938 124.898 44.25V29.1094H121.851V27.9375H130.054V46.7812H131.976ZM130.523 21.5625C130.523 22.0938 130.398 22.5938 130.148 23.0625C129.554 24.1562 128.617 24.7031 127.336 24.7031C126.836 24.7031 126.351 24.5938 125.882 24.375C124.726 23.8125 124.148 22.875 124.148 21.5625C124.148 21.0625 124.273 20.5625 124.523 20.0625C125.117 18.9062 126.054 18.3281 127.336 18.3281C127.836 18.3281 128.32 18.4531 128.789 18.7031C129.945 19.3281 130.523 20.2812 130.523 21.5625ZM144.447 46.7812C144.634 46.7812 144.822 46.7969 145.009 46.8281C145.416 46.9219 145.619 47.3125 145.619 48H133.291V46.7812C134.291 46.7812 135.025 46.7188 135.494 46.5938C136.431 46.3125 136.9 45.5 136.9 44.1562V18.75H133.291V17.5312H142.056V46.7812H144.447ZM156.496 28.5C156.152 28.5 155.793 28.5469 155.418 28.6406C153.199 29.3281 152.027 31.8906 151.902 36.3281L155.511 36.4688C156.824 36.5 157.824 36.4219 158.511 36.2344C159.574 35.8594 160.105 34.9375 160.105 33.4688C160.105 32.9375 160.058 32.4219 159.964 31.9219C159.589 29.6406 158.433 28.5 156.496 28.5ZM165.074 43.2656C164.886 43.7344 164.652 44.2031 164.371 44.6719C162.777 47.2031 160.199 48.4688 156.636 48.4688C154.543 48.4688 152.652 48 150.964 47.0625C147.808 45.2188 146.23 42.1562 146.23 37.875C146.23 35.25 146.902 33.0156 148.246 31.1719C150.152 28.5781 152.902 27.2812 156.496 27.2812C158.464 27.2812 160.23 27.6562 161.793 28.4062C164.293 29.6562 165.543 31.5156 165.543 33.9844C165.543 34.6719 165.386 35.2656 165.074 35.7656C164.136 37.2031 161.324 37.875 156.636 37.7812L151.902 37.6875C151.902 37.7188 151.902 37.75 151.902 37.7812C152.058 44 153.964 47.1094 157.621 47.1094C158.308 47.1094 158.98 47 159.636 46.7812C161.605 46.1562 163.043 44.8594 163.949 42.8906L165.074 43.2656Z" fill="#E5E5E5"/>
<path d="M10.9332 38.9169C9.65252 36.1611 9.00561 32.8977 9.00004 29.1203M10.9332 38.9169L19.0151 27.5379M10.9332 38.9169C12.2914 41.589 14.4129 44.1021 16.8766 45.5853M9.00004 29.1203L18.8905 7.00001M9.00004 29.1203L9 7L18.8905 7.00001M18.8905 7.00001L19.0151 27.5379M19.0151 27.5379C19.0547 29.8104 19.3088 32.4436 19.7711 33.9784M19.7711 33.9784L16.8766 45.5853M19.7711 33.9784C20.293 35.3199 21.8868 37.4957 22.8274 38.2249M16.8766 45.5853C19.3877 47.0017 23.1973 47.9584 26.6424 48M22.8274 38.2249L26.6424 48M22.8274 38.2249C23.8285 38.7964 25.7276 39.0625 27.1263 39.0716M26.6424 48C30.108 47.9814 33.4962 47.0429 36.0014 45.6581M27.1263 39.0716L36.0014 45.6581M27.1263 39.0716C28.5184 38.9849 29.9641 38.1915 30.928 37.5M36.0014 45.6581C38.4763 44.1979 40.5685 41.6422 41.928 39M30.928 37.5L41.928 39M30.928 37.5C31.8287 36.6815 32.6974 35.5796 33.1546 34.1331M41.928 39C43.2495 36.2737 43.9608 32.9876 43.9983 29.2454M33.1546 34.1331L43.9983 29.2454M33.1546 34.1331C33.5957 32.5388 33.979 29.4495 33.9849 27.1211M43.9983 29.2454L44 18.195M33.9849 27.1211L44 18.195M33.9849 27.1211V16.8991M44 18.195L43.8479 7M33.9849 16.8991L43.8479 7M33.9849 16.8991V7H43.8479" stroke="white"/>
</svg>
