<svg width="129" height="129" viewBox="0 0 129 129" fill="none" xmlns="http://www.w3.org/2000/svg">
<circle cx="64.5" cy="64.5" r="64" stroke="black"/>
<path d="M53.55 75.6021H61.394C61.6375 75.6036 61.8788 75.5569 62.1042 75.4649C62.3296 75.3728 62.5346 75.2372 62.7075 75.0658L75.5095 62.249L80.7635 57.1075C80.9369 56.9356 81.0745 56.731 81.1684 56.5056C81.2624 56.2803 81.3107 56.0385 81.3107 55.7944C81.3107 55.5502 81.2624 55.3085 81.1684 55.0831C81.0745 54.8578 80.9369 54.6532 80.7635 54.4813L72.9195 46.5471C72.7475 46.3737 72.5429 46.2361 72.3175 46.1422C72.092 46.0483 71.8502 46 71.606 46C71.3618 46 71.12 46.0483 70.8945 46.1422C70.6691 46.2361 70.4645 46.3737 70.2925 46.5471L65.0755 51.7811L52.2365 64.5978C52.065 64.7706 51.9294 64.9756 51.8373 65.2009C51.7453 65.4263 51.6986 65.6676 51.7 65.911V73.7527C51.7 74.2432 51.8949 74.7136 52.2419 75.0605C52.5888 75.4073 53.0593 75.6021 53.55 75.6021ZM71.606 50.4679L76.8415 55.7019L74.2145 58.3282L68.979 53.0942L71.606 50.4679ZM55.4 66.6692L66.3705 55.7019L71.606 60.9359L60.6355 71.9032H55.4V66.6692ZM83.15 79.3011H49.85C49.3593 79.3011 48.8888 79.4959 48.5419 79.8428C48.1949 80.1896 48 80.66 48 81.1505C48 81.641 48.1949 82.1115 48.5419 82.4583C48.8888 82.8051 49.3593 83 49.85 83H83.15C83.6407 83 84.1112 82.8051 84.4581 82.4583C84.8051 82.1115 85 81.641 85 81.1505C85 80.66 84.8051 80.1896 84.4581 79.8428C84.1112 79.4959 83.6407 79.3011 83.15 79.3011Z" fill="black"/>
</svg>
