<svg width="54" height="54" viewBox="0 0 54 54" fill="none" xmlns="http://www.w3.org/2000/svg">
<path d="M10.9332 38.9169C9.65252 36.1611 9.00561 32.8977 9.00004 29.1203M10.9332 38.9169L19.0151 27.5379M10.9332 38.9169C12.2914 41.589 14.4129 44.1021 16.8766 45.5853M9.00004 29.1203L18.8905 7.00001M9.00004 29.1203L9 7L18.8905 7.00001M18.8905 7.00001L19.0151 27.5379M19.0151 27.5379C19.0547 29.8104 19.3088 32.4436 19.7711 33.9784M19.7711 33.9784L16.8766 45.5853M19.7711 33.9784C20.293 35.3199 21.8868 37.4957 22.8274 38.2249M16.8766 45.5853C19.3877 47.0017 23.1973 47.9584 26.6424 48M22.8274 38.2249L26.6424 48M22.8274 38.2249C23.8285 38.7964 25.7276 39.0625 27.1263 39.0716M26.6424 48C30.108 47.9814 33.4962 47.0429 36.0014 45.6581M27.1263 39.0716L36.0014 45.6581M27.1263 39.0716C28.5184 38.9849 29.9641 38.1915 30.928 37.5M36.0014 45.6581C38.4763 44.1979 40.5685 41.6422 41.928 39M30.928 37.5L41.928 39M30.928 37.5C31.8287 36.6815 32.6974 35.5796 33.1546 34.1331M41.928 39C43.2495 36.2737 43.9608 32.9876 43.9983 29.2454M33.1546 34.1331L43.9983 29.2454M33.1546 34.1331C33.5957 32.5388 33.979 29.4495 33.9849 27.1211M43.9983 29.2454L44 18.195M33.9849 27.1211L44 18.195M33.9849 27.1211V16.8991M44 18.195L43.8479 7M33.9849 16.8991L43.8479 7M33.9849 16.8991V7H43.8479" stroke="white"/>
</svg>
