<svg width="129" height="129" viewBox="0 0 129 129" fill="none" xmlns="http://www.w3.org/2000/svg">
<circle cx="64.5" cy="64.5" r="64" stroke="black"/>
<path d="M80.625 62.1875H66.375V48.3125C66.375 47.6992 66.1248 47.111 65.6794 46.6773C65.234 46.2436 64.6299 46 64 46C63.3701 46 62.766 46.2436 62.3206 46.6773C61.8752 47.111 61.625 47.6992 61.625 48.3125V62.1875H47.375C46.7451 62.1875 46.141 62.4311 45.6956 62.8648C45.2502 63.2985 45 63.8867 45 64.5C45 65.1133 45.2502 65.7015 45.6956 66.1352C46.141 66.5689 46.7451 66.8125 47.375 66.8125H61.625V80.6875C61.625 81.3008 61.8752 81.889 62.3206 82.3227C62.766 82.7564 63.3701 83 64 83C64.6299 83 65.234 82.7564 65.6794 82.3227C66.1248 81.889 66.375 81.3008 66.375 80.6875V66.8125H80.625C81.2549 66.8125 81.859 66.5689 82.3044 66.1352C82.7498 65.7015 83 65.1133 83 64.5C83 63.8867 82.7498 63.2985 82.3044 62.8648C81.859 62.4311 81.2549 62.1875 80.625 62.1875Z" fill="black"/>
</svg>
