<svg width="30" height="32" viewBox="0 0 30 32" fill="none" xmlns="http://www.w3.org/2000/svg">
<path fill-rule="evenodd" clip-rule="evenodd" d="M29 23.504H1C2.11391 23.504 3.1822 23.0298 3.96985 22.1857C4.7575 21.3417 5.2 20.1969 5.2 19.0032V11.5019C5.2 8.71659 6.2325 6.0454 8.07035 4.07592C9.90821 2.10644 12.4009 1 15 1C17.5991 1 20.0918 2.10644 21.9296 4.07592C23.7675 6.0454 24.8 8.71659 24.8 11.5019V19.0032C24.8 20.1969 25.2425 21.3417 26.0302 22.1857C26.8178 23.0298 27.8861 23.504 29 23.504ZM17.422 29.5051C17.1759 29.9597 16.8226 30.3372 16.3975 30.5995C15.9725 30.8619 15.4905 31 15 31C14.5095 31 14.0275 30.8619 13.6025 30.5995C13.1774 30.3372 12.8241 29.9597 12.578 29.5051H17.422Z" stroke="black" stroke-width="2" stroke-linecap="round" stroke-linejoin="round"/>
</svg>
