<svg width="32" height="32" viewBox="0 0 32 32" fill="none" xmlns="http://www.w3.org/2000/svg">
<path d="M31.1579 7.52941H23.5368C23.1158 3.29412 19.9158 0 16 0C12.0842 0 8.88421 3.29412 8.46316 7.52941H0.842105C0.378947 7.52941 0 7.95294 0 8.47059V31.0588C0 31.5765 0.378947 32 0.842105 32H31.1579C31.6211 32 32 31.5765 32 31.0588V8.47059C32 7.95294 31.6211 7.52941 31.1579 7.52941ZM22.7368 14.1176C23.2 14.1176 23.5789 14.5412 23.5789 15.0588C23.5789 15.5765 23.2 16 22.7368 16C22.2737 16 21.8947 15.5765 21.8947 15.0588C21.8947 14.5412 22.2737 14.1176 22.7368 14.1176ZM16 1.88235C18.9474 1.88235 21.4316 4.32941 21.8105 7.52941H10.1895C10.5684 4.32941 13.0526 1.88235 16 1.88235ZM9.26316 14.1176C9.72632 14.1176 10.1053 14.5412 10.1053 15.0588C10.1053 15.5765 9.72632 16 9.26316 16C8.8 16 8.42105 15.5765 8.42105 15.0588C8.42105 14.5412 8.8 14.1176 9.26316 14.1176ZM30.3158 30.1176H1.68421V9.41176H8.42105V12.3765C7.45263 12.7529 6.73684 13.7882 6.73684 15.0588C6.73684 16.6118 7.87368 17.8824 9.26316 17.8824C10.6526 17.8824 11.7895 16.6118 11.7895 15.0588C11.7895 13.8353 11.0737 12.8 10.1053 12.3765V9.41176H21.8947V12.3765C20.9263 12.7529 20.2105 13.7882 20.2105 15.0588C20.2105 16.6118 21.3474 17.8824 22.7368 17.8824C24.1263 17.8824 25.2632 16.6118 25.2632 15.0588C25.2632 13.8353 24.5474 12.8 23.5789 12.3765V9.41176H30.3158V30.1176Z" fill="black"/>
</svg>
