<svg width="16" height="11" viewBox="0 0 16 11" fill="none" xmlns="http://www.w3.org/2000/svg">
<path d="M11.2387 3.51545C11.6702 3.10907 12.0985 2.16084 10.3007 3.31226C8.62131 4.40087 6.93053 5.47381 5.22861 6.53093C4.96944 6.64131 4.68927 6.70121 4.40491 6.70703C4.12055 6.71284 3.83787 6.66447 3.57386 6.5648C2.49519 6.26001 1.23595 5.85363 1.23595 5.85363C1.23595 5.85363 0.376142 5.34491 1.84798 4.80307C1.84798 4.80307 8.07068 2.3979 10.2288 1.55053C11.0558 1.21188 13.8611 0.128194 13.8611 0.128194C13.8611 0.128194 15.1563 -0.346655 15.0484 0.805499C15.0125 1.27961 14.7248 2.94048 14.4372 4.73534C14.0049 7.27597 13.5375 10.0544 13.5375 10.0544C13.5375 10.0544 13.4656 10.8333 12.8544 10.9688C12.2 10.9583 11.5678 10.744 11.0566 10.3592C10.9127 10.2576 8.3591 8.73291 7.42347 7.98787C7.3283 7.92715 7.25098 7.84474 7.1987 7.74831C7.14642 7.65188 7.12089 7.54456 7.12448 7.43634C7.12807 7.32812 7.16066 7.22251 7.21922 7.12934C7.27779 7.03617 7.36042 6.95846 7.45943 6.90345C8.7427 5.79762 10.0027 4.66807 11.2387 3.51545Z" fill="white"/>
</svg>
