<svg width="18" height="10" viewBox="0 0 18 10" fill="none" xmlns="http://www.w3.org/2000/svg">
<path d="M9.12973 9.83353H10.1644C10.1644 9.83353 10.4772 9.79902 10.6363 9.62757C10.7834 9.47013 10.778 9.17466 10.778 9.17466C10.778 9.17466 10.7575 7.79114 11.4025 7.58733C12.0378 7.38676 12.8538 8.92448 13.7186 9.5165C14.3723 9.96401 14.869 9.86588 14.869 9.86588L17.1818 9.83353C17.1818 9.83353 18.3918 9.75912 17.8182 8.81126C17.7717 8.73361 17.4838 8.11033 16.0985 6.82925C14.6482 5.48778 14.843 5.70561 16.5898 3.38608C17.6537 1.97345 18.079 1.11077 17.9459 0.741973C17.8193 0.390431 17.0368 0.483169 17.0368 0.483169L14.435 0.498266C14.435 0.498266 14.2424 0.472386 14.0984 0.557575C13.9588 0.641687 13.869 0.835789 13.869 0.835789C13.869 0.835789 13.4567 1.92923 12.9069 2.85877C11.7477 4.82029 11.2835 4.92381 11.0941 4.80196C10.6536 4.51835 10.764 3.66106 10.764 3.05287C10.764 1.15175 11.0529 0.359159 10.2001 0.154273C9.91654 0.0863371 9.70875 0.0410465 8.98471 0.033498C8.05612 0.0237929 7.26931 0.0367331 6.82449 0.253481C6.52795 0.39798 6.29959 0.720406 6.43921 0.738738C6.61129 0.761383 7.0009 0.843338 7.20762 1.12371C7.47494 1.48496 7.4652 2.29803 7.4652 2.29803C7.4652 2.29803 7.61888 4.5356 7.10697 4.81382C6.75523 5.00468 6.27362 4.6154 5.24005 2.83505C4.71082 1.92384 4.31038 0.915587 4.31038 0.915587C4.31038 0.915587 4.23354 0.727955 4.09609 0.627668C3.92942 0.505815 3.69565 0.466994 3.69565 0.466994L1.22158 0.482091C1.22158 0.482091 0.850357 0.492875 0.71399 0.653549C0.592776 0.796969 0.70425 1.09244 0.70425 1.09244C0.70425 1.09244 2.64152 5.60748 4.8342 7.88388C6.84614 9.97048 9.12973 9.83353 9.12973 9.83353Z" fill="white"/>
</svg>
