<svg width="19" height="11" viewBox="0 0 19 11" fill="none" xmlns="http://www.w3.org/2000/svg">
<path fill-rule="evenodd" clip-rule="evenodd" d="M17.3599 1.08523C16.8903 0.317614 16.3806 0.17642 15.3427 0.122727C14.306 0.0580966 11.699 0.03125 9.44046 0.03125C7.1776 0.03125 4.56952 0.0580967 3.53386 0.121733C2.4982 0.176421 1.98741 0.316619 1.51341 1.08523C1.02967 1.85185 0.780762 3.1723 0.780762 5.49702V5.50497C0.780762 7.81974 1.02967 9.15014 1.51341 9.90881C1.98741 10.6764 2.49712 10.8156 3.53278 10.8803C4.56952 10.9359 7.1776 10.9688 9.44046 10.9688C11.699 10.9688 14.306 10.9359 15.3438 10.8812C16.3816 10.8166 16.8914 10.6774 17.361 9.9098C17.8491 9.15114 18.0958 7.82074 18.0958 5.50597V5.49801C18.0958 3.1723 17.8491 1.85185 17.3599 1.08523ZM7.27391 8.48295V2.51705L12.6849 5.5L7.27391 8.48295Z" fill="white"/>
</svg>
